<svg width="60" height="60" viewBox="0 0 60 60" fill="none" xmlns="http://www.w3.org/2000/svg">
<path d="M16.4189 24.5815C8.70779 18.1555 12.8043 11.4618 16.4189 10.123C19.0964 10.123 19.6717 10.2323 20.9707 10.7924L29.2709 15.6119C26.4863 15.8261 25.7009 18.9141 25.6563 20.4314V30.0703L16.4189 24.5815Z" fill="#F86F03"/>
<path d="M48.7224 35.5348C56.4335 41.9607 52.337 48.6544 48.7224 49.9932C46.0449 49.9932 45.4697 49.8839 44.1707 49.3238L35.8705 44.5043C38.6551 44.2901 39.4404 41.2021 39.4851 39.6849V30.0459L48.7224 35.5348Z" fill="#F86F03"/>
<path d="M29.0031 3.02809L16.4189 10.1234C18.9893 10.1234 20.5244 10.5696 20.9707 10.7927L37.9727 20.6994C40.6502 21.7704 43.1045 21.0564 43.997 20.5655L56.0457 13.4702C53.3682 13.256 50.0214 11.6852 48.6826 10.9266L35.1613 3.02809C32.8051 1.5287 30.0741 2.40334 29.0031 3.02809Z" fill="#FFA41B"/>
<path d="M36.1382 57.0886L48.7224 49.9933C46.152 49.9933 44.6169 49.5471 44.1706 49.324L27.1686 39.4173C24.4911 38.3463 22.0368 39.0603 21.1443 39.5512L9.0956 46.6465C11.7731 46.8607 15.1199 48.4315 16.4587 49.1901L29.98 57.0886C32.3362 58.588 35.0672 57.7134 36.1382 57.0886Z" fill="#FFA41B"/>
<path d="M53.1129 19.3492C52.7012 19.3712 52.4678 19.8306 52.6927 20.1761C52.9817 20.6201 52.8561 21.2143 52.4121 21.5034L44.784 26.4688C44.364 26.7422 43.8292 26.7677 43.3851 26.5356L34.1232 21.6941C32.7862 20.9952 31.1848 21.9651 31.1848 23.4738V33.9179C31.1848 35.0093 29.9823 35.6729 29.0589 35.0911L23.6603 31.6892C23.0416 31.2994 22.2599 31.2767 21.6197 31.6299L2.62305 42.1108C2.04041 42.4323 1.82868 43.1652 2.15014 43.7478C2.47159 44.3305 3.2045 44.5422 3.78713 44.2207L21.8595 34.2497C22.3017 34.0058 22.8415 34.0215 23.2687 34.2907L30.5159 38.8574C31.8531 39.7001 33.5945 38.739 33.5945 37.1585V26.4264C33.5945 25.3847 34.7003 24.7149 35.6236 25.1975L43.196 29.1558C43.8391 29.492 44.6136 29.455 45.2217 29.0591L53.7266 23.5229C54.1707 23.2339 54.765 23.3595 55.054 23.8036C55.2789 24.1491 55.7934 24.1215 55.9802 23.754L57.9411 19.8953C58.1278 19.5278 57.8467 19.096 57.4351 19.118L53.1129 19.3492Z" fill="#7882E8"/>
</svg>
