<svg width="24" height="25" viewBox="0 0 24 25" fill="none" xmlns="http://www.w3.org/2000/svg">
<path d="M19.6318 7.60565L13.1662 3.58831C12.8125 3.36723 12.4037 3.25 11.9866 3.25C11.5695 3.25 11.1607 3.36723 10.807 3.58831L4.34146 7.60565C3.97383 7.83728 3.68204 8.17145 3.50209 8.56695C3.32213 8.96246 3.26189 9.40198 3.32878 9.83132L4.99803 19.8468C5.08574 20.3715 5.35843 20.8473 5.76671 21.1882C6.17499 21.5291 6.69186 21.7126 7.2237 21.7053H9.76097V18.0552C9.76097 17.642 9.92511 17.2457 10.2173 16.9535C10.5094 16.6613 10.9057 16.4972 11.3189 16.4972H12.6543C13.0675 16.4972 13.4638 16.6613 13.756 16.9535C14.0481 17.2457 14.2123 17.642 14.2123 18.0552V21.7498H16.7718C17.3036 21.7571 17.8205 21.5736 18.2288 21.2327C18.6371 20.8918 18.9098 20.416 18.9975 19.8914L20.6667 9.87583C20.7408 9.43734 20.6817 8.98672 20.4973 8.58209C20.3128 8.17745 20.0114 7.83735 19.6318 7.60565Z" fill="#F86F03" stroke="#F86F03" stroke-width="1.5" stroke-linecap="round" stroke-linejoin="round"/>
<path d="M7.53528 11.3784H16.438" stroke="#F5F5FA" stroke-width="1.5" stroke-linecap="round" stroke-linejoin="round"/>
</svg>
