<svg width="24" height="25" viewBox="0 0 24 25" fill="none" xmlns="http://www.w3.org/2000/svg">
<path d="M21.25 10.4445C21.2482 11.0806 21.0497 11.7006 20.6817 12.2195C20.3137 12.7384 19.7942 13.1307 19.1944 13.3428C18.8662 13.4673 18.5177 13.53 18.1667 13.5278C17.5305 13.526 16.9105 13.3275 16.3916 12.9595C15.8727 12.5915 15.4804 12.072 15.2683 11.4722C15.1438 11.144 15.0811 10.7955 15.0833 10.4445C15.0856 10.7955 15.0228 11.144 14.8983 11.4722C14.6863 12.072 14.2939 12.5915 13.775 12.9595C13.2561 13.3275 12.6361 13.526 12 13.5278C11.3639 13.526 10.7439 13.3275 10.225 12.9595C9.70607 12.5915 9.31371 12.072 9.10167 11.4722C8.97716 11.144 8.91443 10.7955 8.91667 10.4445C8.9189 10.7955 8.85618 11.144 8.73167 11.4722C8.51962 12.072 8.12726 12.5915 7.60837 12.9595C7.08948 13.3275 6.46947 13.526 5.83333 13.5278C5.48226 13.53 5.13381 13.4673 4.80556 13.3428C4.2058 13.1307 3.6863 12.7384 3.3183 12.2195C2.95029 11.7006 2.75179 11.0806 2.75 10.4445L3.2125 8.82061L4.3225 5.65505C4.4633 5.25228 4.72595 4.9033 5.07402 4.65652C5.42209 4.40974 5.83833 4.27739 6.265 4.27783H17.735C18.1617 4.27739 18.5779 4.40974 18.926 4.65652C19.274 4.9033 19.5367 5.25228 19.6775 5.65505L20.7875 8.82061L21.25 10.4445Z" stroke="#13131A" stroke-width="1.5" stroke-linecap="round" stroke-linejoin="round"/>
<path d="M19.1943 13.3428V18.6667C19.1943 19.2118 18.9777 19.7347 18.5922 20.1202C18.2067 20.5057 17.6839 20.7222 17.1387 20.7222H6.86098C6.31581 20.7222 5.79297 20.5057 5.40748 20.1202C5.02199 19.7347 4.80542 19.2118 4.80542 18.6667V13.3428" stroke="#13131A" stroke-width="1.5" stroke-linecap="round" stroke-linejoin="round"/>
<path d="M8.91675 17.6387H15.0834" stroke="#13131A" stroke-width="1.5" stroke-linecap="round" stroke-linejoin="round"/>
</svg>
