<svg width="24" height="25" viewBox="0 0 24 25" fill="none" xmlns="http://www.w3.org/2000/svg">
<path d="M17.74 23.25H6.26C3.77 23.25 1.75 21.23 1.75 18.74V12.01C1.75 9.52001 3.77 7.5 6.26 7.5H17.74C20.23 7.5 22.25 9.52001 22.25 12.01V13.45C22.25 13.86 21.91 14.2 21.5 14.2H19.48C19.13 14.2 18.81 14.33 18.58 14.57L18.57 14.58C18.29 14.85 18.16 15.22 18.19 15.6C18.25 16.26 18.88 16.79 19.6 16.79H21.5C21.91 16.79 22.25 17.13 22.25 17.54V18.73C22.25 21.23 20.23 23.25 17.74 23.25ZM6.26 9C4.6 9 3.25 10.35 3.25 12.01V18.74C3.25 20.4 4.6 21.75 6.26 21.75H17.74C19.4 21.75 20.75 20.4 20.75 18.74V18.3H19.6C18.09 18.3 16.81 17.18 16.69 15.74C16.61 14.92 16.91 14.11 17.51 13.52C18.03 12.99 18.73 12.7 19.48 12.7H20.75V12.01C20.75 10.35 19.4 9 17.74 9H6.26Z" fill="#13131A"/>
<path d="M2.5 13.66C2.09 13.66 1.75 13.32 1.75 12.91V8.34006C1.75 6.85006 2.69 5.50001 4.08 4.97001L12.02 1.97001C12.84 1.66001 13.75 1.77005 14.46 2.27005C15.18 2.77005 15.6 3.58005 15.6 4.45005V8.25003C15.6 8.66003 15.26 9.00003 14.85 9.00003C14.44 9.00003 14.1 8.66003 14.1 8.25003V4.45005C14.1 4.07005 13.92 3.72003 13.6 3.50003C13.28 3.28003 12.9 3.23003 12.54 3.37003L4.6 6.37003C3.79 6.68003 3.24 7.47006 3.24 8.34006V12.91C3.25 13.33 2.91 13.66 2.5 13.66Z" fill="#13131A"/>
<path d="M19.6 18.3002C18.09 18.3002 16.81 17.1802 16.69 15.7402C16.61 14.9102 16.91 14.1002 17.51 13.5102C18.02 12.9902 18.72 12.7002 19.47 12.7002H21.55C22.54 12.7302 23.3 13.5102 23.3 14.4702V16.5302C23.3 17.4902 22.54 18.2702 21.58 18.3002H19.6ZM21.53 14.2002H19.48C19.13 14.2002 18.81 14.3302 18.58 14.5702C18.29 14.8502 18.15 15.2302 18.19 15.6102C18.25 16.2702 18.88 16.8002 19.6 16.8002H21.56C21.69 16.8002 21.81 16.6802 21.81 16.5302V14.4702C21.81 14.3202 21.69 14.2102 21.53 14.2002Z" fill="#13131A"/>
<path d="M14 13.25H7C6.59 13.25 6.25 12.91 6.25 12.5C6.25 12.09 6.59 11.75 7 11.75H14C14.41 11.75 14.75 12.09 14.75 12.5C14.75 12.91 14.41 13.25 14 13.25Z" fill="#13131A"/>
</svg>
